<?xml version="1.0" encoding="utf-8" ?>
<svg xmlns="http://www.w3.org/2000/svg" xmlns:xlink="http://www.w3.org/1999/xlink" width="2320" height="1656">
	<defs>
		<linearGradient id="gradient_0" gradientUnits="userSpaceOnUse" x1="350.21625" y1="77.016983" x2="357.12656" y2="186.47902">
			<stop offset="0" stop-color="#C9D3F1"/>
			<stop offset="1" stop-color="#97BDF8"/>
		</linearGradient>
	</defs>
	<path fill="url(#gradient_0)" transform="scale(3.23581 3.23581)" d="M433.81 86.7559C433.811 76.2912 431.909 62.7318 439.913 54.632C447.999 46.4484 461.094 46.5279 469.219 54.6427C477.11 62.5234 475.412 76.501 475.372 86.7559C489.432 86.5705 524.348 85.1811 536.135 88.2584C556.34 93.5331 567.283 110.942 567.473 131.336C567.526 137.095 568.164 164.475 566.728 167.716C556.277 176.802 551.109 174.875 538.123 174.822L180.281 174.783C168.588 174.782 149.37 178.692 142.782 167.716C140.888 158.959 142.14 141.278 141.69 131.155C140.841 112.06 155.161 93.6193 173.341 88.6106C186.969 84.856 212.354 87.3802 227.505 86.7559C234.924 86.7368 226.287 69.0019 233.974 57.5887C240.176 48.3805 253.793 46.3474 262.733 52.5885C276.735 62.363 268.514 84.2478 272.294 86.7559C276.541 86.9384 280.857 86.6686 285.114 86.6947L428.691 86.7559L433.81 86.7559Z"/>
	<path fill="#B6E5F8" transform="scale(3.23581 3.23581)" d="M227.505 86.7559C234.924 86.7368 226.287 69.0019 233.974 57.5887C240.176 48.3805 253.793 46.3474 262.733 52.5885C276.735 62.363 268.514 84.2478 272.294 86.7559C267.804 89.8744 277.959 116.088 263.068 127.721C254.03 134.782 241.185 132.675 234.371 123.59C224.305 110.168 236.353 87.5143 227.505 86.7559Z"/>
	<defs>
		<linearGradient id="gradient_1" gradientUnits="userSpaceOnUse" x1="457.02985" y1="49.078075" x2="452.27237" y2="131.32384">
			<stop offset="0" stop-color="#B2C9F8"/>
			<stop offset="1" stop-color="#D8E8F7"/>
		</linearGradient>
	</defs>
	<path fill="url(#gradient_1)" transform="scale(3.23581 3.23581)" d="M433.81 86.7559C433.811 76.2912 431.909 62.7318 439.913 54.632C447.999 46.4484 461.094 46.5279 469.219 54.6427C477.11 62.5234 475.412 76.501 475.372 86.7559C475.59 98.3936 477.62 117.254 469.452 125.824C461.726 133.931 448.012 134.203 440.078 126.27C430.831 117.025 433.835 99.1468 433.81 86.7559C432.374 86.8648 429.974 87.3483 428.691 86.7559L433.81 86.7559Z"/>
	<defs>
		<linearGradient id="gradient_2" gradientUnits="userSpaceOnUse" x1="535.06439" y1="440.46698" x2="178.8853" y2="131.93129">
			<stop offset="0" stop-color="#7FBBF6"/>
			<stop offset="1" stop-color="#E9FAF4"/>
		</linearGradient>
	</defs>
	<path fill="url(#gradient_2)" transform="scale(3.23581 3.23581)" d="M142.782 167.716C149.37 178.692 168.588 174.782 180.281 174.783L538.123 174.822C551.109 174.875 556.277 176.802 566.728 167.716C567.159 168.964 566.731 227.891 566.731 235.211L566.702 311.38C566.571 323.75 566.944 320.886 570.429 332.642C577.605 356.852 574.297 382.565 563.333 405.074C534.919 463.413 453.956 475.021 407.788 430.452C404.845 427.611 402.163 424.477 399.184 421.683C393.035 421.249 386.751 421.664 380.582 421.676L197.222 421.697C143.785 421.73 142.044 401.648 142.008 354.692L142.047 216.373C142.044 204.433 140.503 178.085 142.782 167.716Z"/>
	<path fill="#8DB0F7" transform="scale(3.23581 3.23581)" d="M442.886 223.219C456.563 223.89 482.696 217.627 487.38 234.154C488.217 237.11 488.736 261.046 487.587 263.082C485.248 263.674 470.918 263.011 467.116 263.073C457.691 263.46 443.995 267.8 435.233 271.375C426.009 264.866 427.337 245.223 429.045 235.761C430.412 228.193 435.506 224.534 442.886 223.219Z"/>
	<path fill="#8DB0F7" transform="scale(3.23581 3.23581)" d="M343.33 304.994C349.89 303.755 373.522 303.66 378.255 308.981C384.137 315.592 387.365 359.222 364.889 357.574C353.2 357.563 329.947 362.044 326.15 347.478C325.075 343.351 326.092 338.437 326.059 334.177C325.939 318.831 323.224 304.037 343.33 304.994Z"/>
	<defs>
		<linearGradient id="gradient_3" gradientUnits="userSpaceOnUse" x1="324.44025" y1="241.75682" x2="382.9231" y2="256.27621">
			<stop offset="0" stop-color="#95DDF5"/>
			<stop offset="1" stop-color="#849DFA"/>
		</linearGradient>
	</defs>
	<path fill="url(#gradient_3)" transform="scale(3.23581 3.23581)" d="M335.962 223.219C340.652 222.721 345.776 223.19 350.52 223.189C360.403 223.187 375.38 219.927 380.75 230.733C383.156 235.573 382.622 261.832 380.809 267.156C379.365 271.393 375.677 273.741 371.857 275.623C365.354 275.772 337.977 276.295 333.553 274.207C322.063 268.785 324.708 245.385 325.995 235.167C326.801 228.758 329.417 224.932 335.962 223.219Z"/>
	<defs>
		<linearGradient id="gradient_4" gradientUnits="userSpaceOnUse" x1="218.62326" y1="319.16595" x2="278.39343" y2="343.02341">
			<stop offset="0" stop-color="#99E2F4"/>
			<stop offset="1" stop-color="#8396F9"/>
		</linearGradient>
	</defs>
	<path fill="url(#gradient_4)" transform="scale(3.23581 3.23581)" d="M232.891 304.994C237.224 304.526 242.052 304.984 246.433 304.994C257.895 305.02 275.156 301.682 277.728 317.27C278.465 321.736 278.409 341.633 277.599 346.044C276.322 352.999 271.574 356.523 264.713 357.574L244.801 357.601C233.529 357.607 220.987 358.599 218.83 344.004C216.864 330.698 215.33 307.601 232.891 304.994Z"/>
	<defs>
		<linearGradient id="gradient_5" gradientUnits="userSpaceOnUse" x1="217.86838" y1="238.41057" x2="278.55219" y2="260.0499">
			<stop offset="0" stop-color="#98E2F6"/>
			<stop offset="1" stop-color="#8194FA"/>
		</linearGradient>
	</defs>
	<path fill="url(#gradient_5)" transform="scale(3.23581 3.23581)" d="M234.451 223.219L254.042 223.178C266.511 223.16 277.159 222.644 277.963 238.216C278.696 252.389 282.472 274.832 263.361 275.623L243.227 275.66C231.302 275.673 219.406 276.529 218.472 260.794C217.581 245.791 214.254 223.891 234.451 223.219Z"/>
	<defs>
		<linearGradient id="gradient_6" gradientUnits="userSpaceOnUse" x1="527.13403" y1="391.82932" x2="424.63358" y2="325.58652">
			<stop offset="0" stop-color="#A0CCF5"/>
			<stop offset="1" stop-color="#D5F2F7"/>
		</linearGradient>
	</defs>
	<path fill="url(#gradient_6)" transform="scale(3.23581 3.23581)" d="M473.397 297.121C505.864 295.496 535.267 321.98 537.521 354.249C539.885 388.094 514.117 418.686 480.096 420.909C395.815 421.679 393.859 301.852 473.397 297.121Z"/>
	<defs>
		<linearGradient id="gradient_7" gradientUnits="userSpaceOnUse" x1="464.0799" y1="348.35083" x2="508.69757" y2="351.96289">
			<stop offset="0" stop-color="#A4DFF4"/>
			<stop offset="1" stop-color="#6DACF8"/>
		</linearGradient>
	</defs>
	<path fill="url(#gradient_7)" transform="scale(3.23581 3.23581)" d="M475.372 318.755C491.625 317.14 484.87 343.272 486.211 354.588C493.733 358.829 514.838 365.136 506.113 377.72C504.179 380.51 501.3 381.528 498.11 382.11C490.376 381.203 466.027 367.915 464.469 362.839C462.931 357.831 464.516 328.097 466.963 323.988C468.832 320.849 472.019 319.649 475.372 318.755Z"/>
</svg>
