<?xml version="1.0" encoding="utf-8" ?>
<svg xmlns="http://www.w3.org/2000/svg" xmlns:xlink="http://www.w3.org/1999/xlink" width="1024" height="1024">
	<path fill="#FEFEFE" d="M0 0L1024 0L1024 1024L0 1024L0 0Z"/>
	<path fill="#231F20" d="M480.393 239.049C483.423 238.728 517.171 240.687 518.603 241.641C519.769 242.419 519.884 242.766 520.191 244.033C519.737 245.578 519.231 246.037 518.075 247.072C510.58 247.923 489.418 246.742 482.243 244.845C480.41 244.361 479.213 243.887 478.284 242.202C478.705 240.518 479.182 240.238 480.393 239.049Z"/>
	<path fill="#231F20" d="M458.163 120.663C459.037 120.881 459.368 121.121 459.999 121.76C460.625 123.442 460.273 125.123 459.919 126.834C458.105 135.607 443.416 172.68 436.424 177.279C435.29 176.841 434.939 176.041 434.303 175.063C433.712 172.12 437.948 165.709 439.427 162.855C442.037 157.818 444.676 152.849 446.773 147.568C450.293 138.703 452.947 128.647 458.163 120.663Z"/>
	<path fill="#231F20" d="M519.594 452.883C521.148 452.997 522.225 453.009 523.531 453.977C524.315 456.809 519.185 462.958 517.486 465.582C509.417 478.04 506.509 493.09 500.737 506.568C500.321 506.677 499.398 506.936 498.99 506.963C498.334 507.006 497.855 506.828 497.483 506.298C496.531 504.941 496.688 503.062 496.844 501.492C498.002 489.894 510.762 459.985 519.594 452.883Z"/>
	<path fill="#231F20" d="M501.48 144.804C502.456 144.879 502.864 145.075 503.728 145.489C504.402 146.568 504.634 146.787 504.313 148.111C502.748 154.565 465.698 181.918 458.427 186.064C457.436 186.01 457.162 185.916 456.305 185.505C455.408 184.268 455.313 184.232 455.35 182.721C459.115 177.235 479.418 162.913 486.055 157.516C491.207 153.326 496.019 148.574 501.48 144.804Z"/>
	<path fill="#231F20" d="M535.825 189.496C535.881 189.491 535.937 189.479 535.993 189.482C537.631 189.573 538.447 190.178 539.517 191.459C540.32 192.42 540.389 193.194 540.298 194.379C536.635 198.682 483.498 214.459 475.892 216.391C474.22 216.491 473.12 216.498 471.761 215.435C471.493 214.543 471.319 214.646 471.647 213.942C474.065 208.745 508.883 199.436 515.757 197.107Q525.905 193.602 535.825 189.496Z"/>
	<path fill="#231F20" d="M184.949 245.69L186.208 245.601C187.588 246.178 188.273 246.915 188.972 248.207C194.041 257.576 206.513 290.863 203.807 300.151C199.396 303.494 168.063 309.223 159.751 311.567C152.147 313.711 144.881 316.367 137.764 319.808C136.254 320.387 135.038 320.79 133.417 320.882C132.478 320.446 132.1 320.366 131.642 319.371C130.692 317.308 129.085 305.169 128.429 302.053Q124.864 285.032 120.216 268.275C119.656 266.227 118.079 261.82 118.702 259.962C123.811 257.815 130.395 257.184 135.865 255.882C143.593 254.043 151.21 251.702 158.97 250.008C167.568 248.131 176.266 247.047 184.949 245.69Z"/>
	<path fill="#FEFEFE" d="M179.305 252.656C180.523 252.38 182.751 252.049 183.909 252.55C186.693 253.755 187.276 258.781 187.816 261.377C169.616 266.41 151.156 270.384 133.066 275.801L128.84 277.57C127.625 274.075 124.822 267.602 125.868 264.067C128.941 262.601 132.612 262.157 135.915 261.32C150.373 257.653 164.563 254.901 179.305 252.656Z"/>
	<path fill="#231F20" d="M687.822 167.197C719.889 164.902 760 181.21 784.344 201.58C805.248 219.072 819.971 247.102 822.322 274.249C822.809 279.865 823.11 286.112 822.714 291.722C822.601 293.334 821.573 295.589 821.821 297.074C821.899 297.544 827.364 299.707 828.335 300.374C834.895 304.879 839.425 313.099 840.748 320.869C842.549 331.451 839.696 341.948 833.587 350.623C826.329 360.93 819.344 365.631 806.874 367.823C805.183 367.171 803.551 366.37 801.906 365.609C798.252 383.951 792.074 402.085 780.178 416.814C784.291 422.045 789.678 426.351 794.372 431.065C804.737 441.475 812.306 453.293 818.243 466.671C825.094 482.106 827.938 500.508 821.665 516.698C824.125 520.544 827.765 529.955 831.328 532.008C831.468 532.089 831.614 532.159 831.757 532.234C840.012 550.107 850.013 568.394 854.318 587.668C860.291 576.882 865.122 564.272 869.482 552.736C871.878 546.398 878.676 525.205 881.888 521.2C882.857 520.845 883.805 520.477 884.75 520.062C884.98 513.833 883.017 507.26 881.312 501.314C878.292 490.776 873.914 480.05 868.036 470.742C862.391 461.803 848.392 443.758 845.724 434.238C845.374 432.99 845.232 431.957 846.109 430.881C846.678 430.184 847.501 429.919 848.348 429.757C850.628 429.319 853.44 430.413 855.586 431.089C870.519 435.793 881.046 445.713 892.966 455.222C893.704 450.527 893.523 445.589 893.555 440.846C893.65 426.565 892.757 412.629 891.802 398.396C891.475 393.533 891.612 388.641 891.237 383.785C890.656 376.273 889.022 369.154 889.379 361.561C889.435 360.388 889.349 359.035 889.781 357.926C890.188 356.878 890.501 356.818 891.453 356.366C897.236 356.974 904.77 366.799 908.605 371.114C906.897 364.549 900.14 328.023 902.601 323.482C903.305 322.182 903.544 322.113 904.872 321.779C912.035 324.053 916.563 334.209 920.282 340.112C920.419 336.85 920.308 333.219 921.185 330.072C921.833 327.743 922.895 324.346 925.374 323.334C933.039 320.207 945.506 345.737 948.359 347.216L949.478 345.797C950.409 345.585 950.989 345.623 951.863 345.973C955.422 347.397 957.123 350.4 958.626 353.737C968.269 375.153 972.426 399.281 973.82 422.607C973.935 424.538 974.998 426.384 974.968 428.159C974.69 444.457 973.655 460.625 969.202 476.383C966.267 486.771 962.911 497.618 958.698 507.558C955.353 515.45 951.194 523.041 948.165 531.06C948.765 532.409 949.473 532.383 950.784 532.953C951.499 533.264 952.539 533.585 953.142 534.074C955.948 536.354 953.454 540.405 952.37 543.04C950.101 548.556 948.574 554.171 946.734 559.826L936.141 592.96C934.41 598.35 932.051 603.488 929.959 608.742L918.254 638.344C912.151 654.082 907.649 670.408 899.65 685.4C896.06 692.129 892.506 699.052 888.518 705.549C886.048 709.574 883.202 713.367 880.694 717.369C878.445 720.958 876.606 724.932 874.184 728.381C872.541 730.72 868.156 734.91 868.179 737.851C869.05 738.804 869.605 739.075 870.929 739.15C875.196 739.392 879.494 738.794 883.809 739.075C892.958 739.67 902.174 741.337 911.339 742.199C927.201 743.69 943.09 744.546 958.941 746.195C961.56 746.468 965.536 746.846 967.167 749.201C967.635 749.878 967.375 750.323 967.272 751.082C966.81 751.634 966.407 752.087 965.721 752.364C961.675 753.992 894.147 746.405 883.699 745.526C878.743 745.109 873.503 745.413 868.606 744.728C866.621 744.45 864.892 743.729 863.079 742.903C857.212 752.168 846.237 762.056 836.904 767.95C833.863 768.165 830.822 767.996 827.779 767.896C820.182 760.115 816.851 750.277 813.212 740.254C806.233 740.089 799.356 739.7 792.431 738.792C792.839 747.871 793.641 756.931 794.135 766.006C794.402 770.909 794.257 775.879 794.704 780.763C794.761 781.387 794.953 781.734 795.341 782.211C796.166 782.613 797.221 783.017 797.943 783.573C799.092 784.457 798.889 784.935 798.918 786.274C797.156 787.826 794.073 788.867 791.999 790.216L791.455 790.574C789.809 789.29 788.752 788.102 786.607 787.844C783.232 787.439 779.73 787.745 776.32 787.463C746.825 785.025 717.555 785.701 688.005 785.288C676.572 785.128 665.208 784.685 653.789 784.128C645.608 783.728 637.367 783.079 629.178 783.293C628.837 788.755 628.787 800.775 624.728 804.501C622.295 805.257 598.998 803.605 594.805 803.266C591.855 814.68 588.671 825.958 585.57 837.329C583.451 845.099 581.329 856.001 577.623 862.873C567.268 863.418 557.165 864.517 546.921 866.121C528.365 869.027 509.971 873.044 491.405 875.957Q470.064 879.194 448.522 880.566C442.282 880.983 435.103 882.119 428.919 881.141C426.975 880.833 425.202 880.108 423.484 879.169C419.513 877 409.698 870.509 408.594 866.05C407.544 861.812 413.068 855.8 415.036 852.191C415.898 850.611 416.831 849.015 416.28 847.179C414.907 846.358 413.607 846.474 412.035 846.454C404.993 846.368 397.854 847.119 390.808 847.382C383.877 847.64 376.935 847.447 370 847.429C349.902 847.376 329.88 849.741 309.798 850.376C287.803 851.071 265.66 852.107 243.669 852.402C216.89 852.763 190.173 852.218 163.41 851.585C142.532 851.091 121.521 850.757 100.706 849.05C96.6547 848.717 87.1439 848.746 84.4998 845.632C84.3896 844.186 84.2259 843.787 85.0825 842.556C87.8983 838.51 92.1529 834.544 95.3588 830.717C112.285 810.516 131.855 792.019 146.991 770.401Q140.574 768.016 134.295 765.291C119.893 758.966 105.019 749.671 97.1011 735.559C94.1813 730.355 92.1942 724.509 90.0369 718.956C76.4122 717.676 62.2236 717.482 48.5204 717.036C42.0382 716.825 34.0958 717.45 27.8894 715.807C26.8968 714.906 26.4668 714.457 26.1179 713.151C26.4072 712.175 26.3856 711.796 27.1451 711.064C28.0811 710.161 29.2141 709.702 30.5019 709.563C35.0962 709.067 40.6456 709.933 45.2788 710.217Q62.3186 711.426 79.3773 712.331C82.4168 712.556 85.4764 712.45 88.5223 712.422C85.0665 697.6 83.4554 685.133 82.8631 669.959C80.7369 615.485 90.7396 558.856 119.958 512.155C124.86 504.32 130.04 496.103 136.371 489.338C167.417 456.161 210.363 434.088 256.106 432.348C248.253 416.058 244.338 399.156 242.933 381.201C237.154 383.634 231.561 385.14 225.211 384.256C217.617 383.198 210.725 378.743 206.161 372.643C199.309 363.485 197.828 350.072 199.535 339.061C201.197 328.341 206.271 318.772 215.192 312.399C223.839 306.224 229.481 306.505 239.495 308.188C240.219 307.226 240.347 306.809 240.498 305.635C240.912 302.422 240.646 299.041 240.793 295.797C241.16 287.661 241.711 279.387 242.824 271.321C245.176 254.265 249.104 236.152 257.992 221.257C261.432 215.491 265.735 210.119 271.379 206.391C291.043 193.406 327.659 195.799 350.179 199.506C358.628 200.897 368.447 204.656 376.996 203.546C391.376 201.679 400.214 187.239 409.08 184.974C410.018 185.261 410.521 185.652 411.068 186.483C415.178 192.727 412.365 209.024 410.946 216.322C416.494 213.047 421.798 208.915 426.768 204.825C429.712 202.403 432.566 199.586 435.862 197.662C436.806 197.728 437.597 197.604 438.41 198.147C440.417 199.487 440.775 203.028 441.103 205.288C443.49 221.729 435.587 241.396 426.055 254.415C430.642 266.313 434.485 277.317 436.044 290.048C436.65 295 436.292 300.097 437.182 304.999C437.211 305.161 437.245 305.322 437.277 305.484C440.237 305.48 443.332 305.329 446.269 305.722C451.479 306.42 456.097 309.594 459.23 313.737C466.237 323.004 467.6 338.601 465.905 349.721C463.707 364.148 458.198 373.86 446.536 382.513C444.303 384.17 440.926 384.527 438.25 385.146C436.543 392.18 437.106 400.156 435.96 407.403C434.034 419.587 430.089 431.609 426.378 443.341C430.543 444.544 434.051 446.746 437.672 449.066C460.525 463.717 482.605 484.945 496.917 508.101C500.674 514.18 503.712 520.896 506.877 527.305C512.38 538.447 517.675 551.241 520.311 563.393C526.012 559.907 536.22 551.992 540.425 546.891C538.256 539.701 536.718 532.023 537.856 524.499C539.576 513.132 545.897 502.466 551.022 492.339C561.258 472.114 582.338 432.756 583.729 411.058C583.264 409.916 582.774 408.82 582.144 407.757C579.226 402.827 574.156 399.198 568.598 397.88C560.692 396.006 552.579 398.006 545.758 402.112C551.363 404.318 563.847 407.152 567.485 411.712C567.539 412.782 567.537 412.967 567.045 413.911C559.155 414.765 551.895 405.058 539.046 408.155C530.235 410.279 522.544 419.172 517.966 426.666C522.265 423.115 526.29 420.264 531.739 418.785C543.134 415.692 553.322 417.319 563.448 423.142C564.396 424.788 565.158 425.996 565.139 427.964C564.459 428.995 564.331 429.306 562.992 429.449C561.382 429.621 560.13 428.58 558.931 427.666C554.185 424.048 546.394 423.058 540.523 423.358C525.385 424.132 517.607 436.653 508.369 446.791C518.631 441.859 529.3 438.135 540.865 439.291C542.935 439.498 545.187 439.841 546.576 441.515C546.817 442.845 546.868 442.967 546.313 444.185C543.334 446.494 532.018 445.206 527.11 446.037C520.328 447.186 514.534 452.127 507.927 453.909C505.958 454.44 503.325 454.969 501.52 453.747C500.78 453.246 500.434 452.415 500.385 451.535C499.944 443.564 510.636 433.727 515.752 428.428C513.408 429.469 511.783 431.291 509.094 430.833C508.541 430.262 508.048 429.976 507.888 429.16C507.409 426.714 509.31 424.18 510.672 422.312C515.325 415.927 520.725 409.262 528.109 405.911C530.565 404.797 533.647 404.359 535.883 402.875C544.02 397.473 545.284 394.148 555.961 392.581C564.745 391.292 575.253 392.419 582.454 398.022C586.619 401.264 589.868 406.359 590.17 411.728C590.479 417.214 587.798 424.089 586.009 429.249C578.921 449.698 568.995 468.75 559.435 488.088C554.271 498.534 547.767 509.149 544.932 520.506C542.9 528.647 543.815 535.198 544.912 543.338C545.952 541.82 546.981 540.186 548.275 538.871C549.504 537.621 550.488 537.148 552.237 537.137C553.671 538.045 554.099 539.273 554.479 540.852C555.514 545.154 555.091 549.779 555.623 554.164C556.389 560.467 558.469 566.628 560.252 572.701C566.52 564.728 574.285 557.587 581.052 549.987C593.806 535.663 606.25 520.289 620.137 507.072C641.427 486.808 658.781 484.449 687.118 485.221C687.752 482.388 692.534 460.877 692.908 460.152C693.665 458.684 694.996 459.321 695.852 458.077C694.868 457.623 695.236 457.691 694.259 457.587C674.989 455.53 650.716 452.311 635.908 438.746C623.908 427.754 612.722 401.519 608.616 385.891Q606.921 379.204 605.888 372.384Q604.855 365.564 604.493 358.675C598.45 358.535 593.789 357.196 589.033 353.27C580.952 346.599 574.343 334.473 573.563 323.979C572.95 315.733 575.872 306.157 581.465 300.005Q582.033 299.378 582.629 298.779Q583.226 298.181 583.851 297.611Q584.476 297.041 585.127 296.502Q585.778 295.963 586.454 295.455Q587.13 294.948 587.83 294.473Q588.53 293.998 589.251 293.558Q589.973 293.117 590.714 292.711Q591.456 292.305 592.216 291.936Q592.977 291.566 593.754 291.232Q594.531 290.899 595.323 290.604Q596.115 290.308 596.92 290.05Q597.725 289.793 598.542 289.574Q599.359 289.355 600.185 289.175Q601.011 288.996 601.845 288.856Q602.679 288.716 603.518 288.616Q604.358 288.516 605.201 288.456C605.904 284.608 609.299 270.535 608.289 267.677C607.166 264.496 594.017 267.657 590.618 265.798C589.466 265.168 589.036 264.416 588.795 263.157C588.023 259.124 591.547 252.009 593.121 248.345C600.563 231.021 609.21 213.458 621.447 198.952C638.451 178.795 662.038 169.322 687.822 167.197Z"/>
	<path fill="#FEFEFE" d="M773.883 634.011C777.015 634.626 784.677 633.844 786.716 635.894L785.868 637.154C783.519 638.26 780.8 638.733 778.201 638.77C776.789 638.79 774.863 638.349 773.918 637.234C773.377 636.595 773.81 634.846 773.883 634.011Z"/>
	<path fill="#FEFEFE" d="M393.046 666.307L393.602 666.826C394.72 670.841 394.971 675.368 395.671 679.5C396.895 686.723 397.958 693.929 399.014 701.176C399.623 705.358 400.58 709.621 400.699 713.847L399.89 714.623C398.573 714.995 397.483 715.249 396.104 715.318C395.95 715.017 395.755 714.733 395.644 714.414C394.784 711.94 391.811 673.538 391.959 669.355C392.011 667.882 392.259 667.508 393.046 666.307Z"/>
	<path fill="#FEFEFE" d="M687.52 597.697C688.121 597.612 688.388 597.559 688.962 597.526C695.821 597.132 725.674 604.095 730.795 608.556C725.517 608.247 719.803 606.293 714.531 605.298C707.985 604.061 701.506 603.541 694.891 602.898C680.123 601.855 665.495 606.687 651.419 610.416C662.877 602.412 673.587 598.841 687.52 597.697Z"/>
	<path fill="#FEFEFE" d="M382.315 638.449C383.544 638.853 384.655 639.351 385.687 640.14C389.323 642.922 393.375 651.198 393.831 655.804C393.978 657.295 393.599 658.015 392.672 659.136C389.997 659.891 387.122 659.888 384.357 660.062C381.32 660.183 377.713 660.72 374.749 660.364C373.349 660.196 373.237 659.949 372.43 658.909C371.853 656.491 372.362 654.394 373.005 652.039C374.703 645.832 376.659 641.712 382.315 638.449Z"/>
	<path fill="#FEFEFE" d="M685.457 608.723Q687.247 608.622 689.039 608.561C695.775 608.338 702.81 609.088 709.472 610.148C714.632 610.969 757.772 620.487 759.721 622.309L759.241 622.994C754.553 624.158 747.455 622.587 742.58 622.156C732.542 621.409 722.676 618.72 712.744 617.138C701.266 615.31 689.436 613.556 677.842 612.681C673.05 612.32 668.216 612.394 663.412 612.17C670.801 610.893 677.958 609.308 685.457 608.723Z"/>
	<path fill="#FEFEFE" d="M584.568 589.251C591.972 588.488 600.497 590.087 607.445 592.607C617.611 596.294 625.312 601.749 629.987 611.658L629.277 611.171C615.15 601.547 598.86 593.332 581.201 594.869C574.564 595.446 567.73 597.155 561.176 598.417C555.173 600.186 512.063 609.406 509.77 608.161C509.637 606.764 509.726 606.62 510.385 605.368C513.701 603.956 517.406 603.444 520.91 602.629Q533.153 599.793 545.453 597.215C557.582 594.547 572.335 589.457 584.568 589.251Z"/>
	<path fill="#FEFEFE" d="M585.417 600.206C590.241 599.965 604.048 605.262 608.996 607.215C578.563 609.182 546.03 613.86 515.889 618.857C511.793 619.589 500.578 622.343 496.859 621.229C496.132 621.011 496.109 620.595 495.768 619.983C495.885 618.984 496.025 618.513 496.623 617.665C497.194 616.854 498.022 616.208 498.991 615.972C503.895 614.78 509.224 614.279 514.218 613.474Q528.05 611.224 541.835 608.704C556.347 606.024 570.73 601.846 585.417 600.206Z"/>
	<path fill="#FEFEFE" d="M885.952 527.174C902.028 533.196 915.039 535.929 932.013 537.999C936.45 538.539 942.474 537.655 946.559 538.876C946.144 543.252 943.725 548.406 942.533 552.724C942.282 553.728 942.529 553.238 941.653 554.113C926.872 552.534 909.904 549.487 896.253 543.193C891.907 541.189 887.809 538.427 883.591 536.138C884.267 533.125 885.136 530.152 885.952 527.174Z"/>
	<path fill="#FEFEFE" d="M603.682 293.452L604.342 293.626L604.86 294.537C604.726 299.26 605.294 306.632 603.174 310.854C600.875 312.037 598.569 313.157 596.739 315.034C592.795 319.08 591.072 324.114 591.141 329.718C591.177 332.67 591.496 336.374 593.835 338.501C594.917 339.484 596.704 340.119 598.189 339.886C599.588 339.667 600.314 338.616 601.154 337.592L600.892 336.846C599.14 335.566 597.322 334.496 596.809 332.241C595.918 328.325 597.159 322.024 599.526 318.768C600.461 317.483 601.395 316.864 602.997 316.65C604.97 320.019 603.461 329.793 603.291 333.727C603.203 340.31 603.565 346.941 603.927 353.513L596.401 351.838C589.966 345.934 584.528 339.276 581.362 331.059C578.742 324.262 578.846 316.923 581.918 310.293C586.124 301.212 594.709 296.68 603.682 293.452Z"/>
	<path fill="#FEFEFE" d="M437.62 310.787C440.703 310.927 444.079 310.945 447.071 311.735C451.199 312.827 454.262 316.33 456.176 319.993C462.017 331.178 461.603 346.413 457.692 358.112C454.005 369.139 448.595 374.144 438.336 379.314L438.513 372.375C438.929 365.704 439.48 358.989 439.56 352.305C439.597 349.132 438.642 345.407 439.303 342.338C439.646 340.743 440.173 339.966 441.485 339.036C442.853 339.097 443.325 339.441 444.386 340.281C446.023 343.79 443.843 344.961 443.218 348.237C442.948 349.652 443.073 349.781 443.894 350.831C445.303 351.373 445.982 351.633 447.526 351.394C448.432 350.74 448.796 350.522 449.186 349.419C450.308 346.244 448.606 339.432 447.092 336.511C446.143 334.681 445.099 333.71 443.165 333.05C441.985 333.221 440.983 333.401 439.792 333.234C438.709 330.61 437.825 314.613 437.62 310.787Z"/>
	<path fill="#FEFEFE" d="M326.659 489.644C337.629 493.521 351.631 493.185 363.227 493.285C360.988 504.576 360.808 512.41 354.573 522.602C353.751 523.735 352.839 524.742 351.812 525.695C348.599 528.676 344.634 530.576 340.187 530.237C337.044 529.997 334.405 528.611 332.374 526.207C325.054 517.541 326.036 500.115 326.659 489.644Z"/>
	<path fill="#FEFEFE" d="M570.913 848.654C572.264 848.537 573.041 848.316 574.299 848.865C575.081 851.172 573.833 854.157 573.215 856.501C562.875 858.779 551.717 859.029 541.199 860.731C524.28 863.47 507.497 867.079 490.577 869.738Q473.85 872.203 456.998 873.572C448.919 874.308 439.76 875.587 431.758 874.08C430.032 873.755 428.417 872.919 426.856 872.146C424.125 870.529 421.444 869.074 419.179 866.812C425.836 865.712 432.556 865.3 439.264 864.631L472.171 861.279C482.633 860.161 493.237 859.187 503.645 857.672C512.236 856.422 520.752 854.741 529.366 853.614C543.208 851.804 557.088 850.785 570.913 848.654Z"/>
	<path fill="#FEFEFE" d="M750.863 440.5C752.168 442.363 750.539 480.54 750.486 486.222C745.782 485.295 740.81 485.371 736.026 485.188Q736.225 484.222 736.408 483.253C737.319 478.433 739.485 465.586 736.786 461.645L735.873 461.543C731.547 464.848 732.422 474.039 731.608 479.267C729.53 492.615 727.536 504.123 715.99 512.571C712.174 514.741 708.002 516.308 703.54 516.077C700.484 515.919 697.678 514.645 695.669 512.313C686.842 502.071 697.879 478.358 698.611 466.154C698.747 463.895 699.093 461.595 697.888 459.569C697.563 459.023 697.408 458.506 697.243 457.897C701.594 456.819 706.65 457.19 711.192 456.331C724.563 453.804 739.244 447.716 750.863 440.5Z"/>
	<path fill="#FEFEFE" d="M445.445 719.792C450.105 719.207 454.751 720.152 459.393 719.476C458.429 726.74 458.064 734.364 457.756 741.692C457.559 746.367 457.776 751.369 456.664 755.935C455.801 759.475 453.131 762.77 451.758 766.179C447.413 776.976 443.013 787.647 438.095 798.203C432.665 809.859 426.541 821.736 422.105 833.808L421.88 834.435C417.968 834.364 414.012 834.901 410.119 835.275C408.85 835.42 408.678 835.576 407.618 834.905C406.561 831.05 406.702 826.789 406.344 822.802C405.343 811.64 404.163 800.345 403.963 789.137C408.286 786.92 411.87 784.338 414.607 780.227C416.575 777.273 419.237 772.55 418.322 768.905C418.28 768.741 418.182 768.591 418.167 768.423C418.142 768.133 418.192 767.841 418.204 767.55C419.65 765.546 421.147 763.482 421.85 761.081C423.06 756.942 421.543 753.833 419.674 750.246L422.778 747.756C423.292 746.2 423.84 744.576 424.182 742.972C425.155 738.411 423.691 735.027 421.199 731.29C422.042 729.934 423.599 727.93 423.992 726.394C424.404 724.782 423.104 723.052 423.966 721.301C430.844 720.042 438.439 720.246 445.445 719.792Z"/>
	<path fill="#FEFEFE" d="M371.8 693.013C375.06 695.976 373.609 717.211 376.61 722.453C379.641 727.747 406.277 718.324 414.995 720.708C416.457 721.107 417.731 721.857 418.367 723.316C418.87 724.468 418.777 725.692 418.173 726.784C414.112 734.135 394.537 735.531 387.184 737.886C385.934 738.287 385.378 738.692 384.84 739.858L385.295 740.699C393.718 746.921 407.535 736.761 416.388 736.041C417.172 736.656 417.998 737.266 418.48 738.166C419.124 739.369 419.361 740.471 418.89 741.795C416.099 749.638 402.305 751.611 396.218 755.104C394.883 755.87 394.04 756.45 393.625 757.951L394.481 758.743C401.52 760.645 407.647 754.628 413.977 754.208C414.983 754.141 414.952 754.429 415.658 755.068C416.112 756.253 416.567 757.406 416.44 758.701C415.397 769.397 394.008 764.456 388.784 768.571C388.748 770.159 388.47 770.955 389.476 772.235C395.403 775.14 406.623 771.643 412.496 769.817C411.152 773.641 409.587 778.4 406.214 780.892C403.421 782.956 399.427 783.576 396.04 783.746C390.275 784.037 384.254 783.043 378.518 782.422C365.36 780.996 351.823 779.145 338.817 776.696C329.875 775.012 321.038 772.73 312.063 771.241C308.605 754.208 310.691 736.683 312.625 719.593C331.978 710.019 352.018 701.653 371.8 693.013Z"/>
	<path fill="#FEFEFE" d="M927.877 330.631C928.517 331.036 928.325 330.891 928.955 331.395C949.451 347.791 949.389 391.471 947.726 415.362C947.414 419.839 945.23 432.514 946.119 436.202C946.415 437.43 946.995 437.861 948.015 438.507C949.161 438.349 949.673 438.028 950.356 437.053C953.116 433.115 953.245 426.661 953.757 422.019C956.452 397.578 954.776 374.878 949.041 350.976Q950.626 353.303 951.919 355.803C965.324 382.238 970.652 426.916 966.937 456.411C965.558 467.361 962.466 478.319 959.007 488.785C956.928 495.074 943.255 530.775 939.587 532.13C933.856 534.248 899.567 526.09 892.225 523.548C890.997 517.874 890.547 511.986 889.368 506.27C886.203 490.913 879.947 474.906 871.567 461.581C868.549 456.781 864.856 452.457 861.553 447.858C858.935 444.212 856.713 440.262 854.44 436.395C858.603 438.19 862.648 440.047 866.645 442.193C876.285 448.645 885.084 458.063 895.051 463.525C896.408 463.413 896.66 463.361 897.636 462.288C905.626 453.505 897.446 380.585 895.883 366.092C900.682 372.35 905.116 378.275 911.181 383.404Q912.889 396.965 913.321 410.627C913.577 418.182 912.541 435.141 914.714 441.501C915.264 443.112 915.923 443.412 917.36 444.055C918.142 443.798 918.332 443.869 918.857 443.168C921.448 439.709 920.312 430.591 920.176 426.393C919.873 417.029 919.644 407.401 918.715 398.095C916.488 375.801 912.27 353.486 908.61 331.378C929.448 361.46 931.879 401.122 930.415 436.498C930.291 439.494 929.922 443.938 932.067 446.28C933.342 446.589 933.397 446.639 934.588 446.119C937.644 441.952 938.088 415.955 937.215 409.961C936.023 401.777 936.693 393.306 935.37 385.151C934.323 378.699 932.857 372.031 931.001 365.771C929.622 361.119 927.575 356.328 926.79 351.546C925.844 345.779 926.322 336.822 927.733 331.162C927.777 330.984 927.829 330.808 927.877 330.631Z"/>
	<path fill="#FEFEFE" d="M153.165 771.523C160.113 774.599 168.456 776.319 175.874 777.933C183.203 779.528 190.613 781.288 198.024 782.424C214.351 784.929 230.769 785.757 247.235 786.708C257.948 787.326 268.697 788.052 279.428 788.173Q287.064 788.239 294.684 787.753C298.185 787.502 301.668 786.897 305.183 787.081C307.157 787.184 309.285 787.536 311.105 786.628C313.303 784.145 312.651 780.711 312.571 777.616C332.103 781.894 352.076 784.854 371.915 787.279C380.071 788.277 388.251 789.466 396.449 790.033C397.478 796.663 397.903 803.395 398.594 810.066C399.473 818.545 400.555 826.955 401.23 835.461C393.858 835.744 386.499 836.42 379.123 836.634C369.307 836.918 359.604 836.833 349.773 837.419C318.596 838.215 287.555 840.397 256.405 841.504C240.287 842.078 224.128 842.132 208.001 842.488C185.444 842.987 162.679 843.69 140.126 843.194C125.069 842.863 110.092 841.633 95.0605 840.854C106.252 825.462 121.736 809.978 134.443 795.472C141.104 787.868 147.153 779.645 153.165 771.523Z"/>
	<path fill="#231F20" d="M313.661 798.723C326.196 797.916 342.56 798.671 355.192 799.578C357.507 799.744 359.526 799.705 361.11 801.53C361.129 802.958 361.04 802.987 360.177 804.143C358.604 804.99 357.297 804.737 355.596 804.577C347.506 804.423 339.446 803.534 331.366 803.394C324.42 803.274 317.138 804.093 310.246 803.391C308.623 803.226 307.461 802.951 306.167 801.905C305.923 800.68 306.03 800.721 306.691 799.638C308.484 798.512 311.564 798.803 313.661 798.723Z"/>
	<path fill="#231F20" d="M345.412 814.724C350.622 814.59 361.141 813.138 365.738 815.377C366.334 816.618 366.358 816.696 366.123 818.05C363.163 820.406 326.361 820.063 319.675 820.179C314.455 820.521 306.98 821.31 301.918 820.627C300.586 820.447 299.98 820.177 299.14 819.156C299.305 817.981 299.514 817.798 300.23 816.901C304.401 814.692 338.127 815.036 345.412 814.724Z"/>
	<path fill="#231F20" d="M252.999 799.233C257.705 799.067 273.222 797.954 276.725 799.567C278.037 800.172 278.691 800.9 279.182 802.23L278.691 802.922C276.465 803.939 237.31 804.774 231.875 805.087C226.927 805.346 210.087 807.246 206.776 804.744C206.564 803.651 206.618 803.48 207.003 802.427C209.846 800.136 246.779 799.344 252.999 799.233Z"/>
	<path fill="#231F20" d="M264.901 815.793C266.783 815.626 269.534 815.084 271.348 815.564C272.895 815.972 273.883 816.532 274.649 817.934L274.163 818.827C272.81 819.681 271.48 820.079 269.891 820.297C262.318 821.335 254.386 821.274 246.749 821.629C231.265 822.349 215.54 822.917 200.119 824.431C198.428 824.53 196.611 824.739 194.922 824.58C193.618 824.457 192.426 823.88 191.562 822.897L191.849 822.095C193.594 820.529 195.633 819.822 197.923 819.395C203.768 818.307 210.433 818.584 216.42 818.249C232.578 817.344 248.745 816.824 264.901 815.793Z"/>
	<path fill="#FEFEFE" d="M605.788 724.728L606.317 724.744L606.751 725.542C605.343 735.535 603.098 745.831 600.616 755.62C599.728 759.121 598.355 762.48 597.48 765.999C591.164 791.406 585.528 817.404 577.04 842.195Q551.206 843.876 525.578 847.539C510.02 849.796 494.697 852.75 479.042 854.535C472.558 855.274 466.044 855.379 459.54 855.856C451.27 856.461 443.012 857.423 434.758 858.224C430.088 858.677 425.121 858.709 420.535 859.607C419.327 859.647 419.922 859.748 418.757 859.276C420.874 851.954 426.124 843.011 429.195 835.717L450.522 786.275C456.141 773.281 461.171 760.076 468.511 747.903C479.107 742.651 514.365 739.922 527.788 737.737L579.63 729.093C588.365 727.609 596.999 725.902 605.788 724.728Z"/>
	<path fill="#FEFEFE" d="M533.554 627.792C545.725 626.604 561.439 627.102 573.827 627.492C584.106 627.815 632.298 631.487 639.641 628.415C639.791 628.352 639.938 628.283 640.087 628.217L640.54 628.601C638.734 632.477 638.323 656.52 637.679 663.004C636.171 678.193 622.793 791.068 619.159 796.584C615.714 797.257 611.591 796.746 608.077 796.754C604.298 796.763 600.507 797.076 596.738 797.337C601.001 780.211 605.616 763.041 609.093 745.74C610.842 738.291 613.241 729.338 612.572 721.665C612.423 719.956 612.153 718.723 610.782 717.6C606.998 716.618 586.798 721.267 581.564 722.066L519 732.057C507.179 733.863 495.133 734.972 483.406 737.232C476.784 738.508 469.335 739.597 463.458 742.987C463.39 735.882 464.239 728.611 464.628 721.506C465.275 709.69 465.672 698.023 467.127 686.266C469.393 667.951 472.498 649.685 472.646 631.199C479.12 631.889 486.327 630.282 492.865 629.851C506.389 628.959 520.013 628.422 533.554 627.792Z"/>
	<path fill="#FEFEFE" d="M672.583 638.722C683.412 638.077 694.451 638.572 705.291 638.811C714.544 639.015 723.916 638.96 733.141 639.727C749.01 641.048 765.359 643.548 781.287 643.076C781.881 651.879 781.802 660.702 782.336 669.499C784.628 707.213 787.531 744.885 789.007 782.651C776.3 781.137 763.227 779.764 750.45 779.231C742.484 778.962 734.45 779.431 726.474 779.372C704.294 779.209 682.162 778.884 659.999 778.043C650.187 777.671 640.366 777.583 630.579 776.744C631.371 768.231 633.083 759.799 634.042 751.3C635.478 738.583 636.039 725.798 637.446 713.103C640.14 688.781 643.62 664.587 645.814 640.202C654.797 639.497 663.559 638.909 672.583 638.722Z"/>
	<path fill="#231F20" d="M666.295 687.701C669.716 687.405 675.804 686.939 678.689 688.92C676.782 690.405 673.95 690.424 671.625 690.511C667.443 690.415 662.835 691.928 658.777 690.618L658.574 689.825C660.453 687.679 663.623 687.943 666.295 687.701Z"/>
	<path fill="#231F20" d="M721.294 735.326C722.579 735.397 723.308 735.368 724.4 736.131C725.399 737.534 725.942 738.822 725.82 740.587C725.631 743.331 724.992 744.876 722.956 746.728C722.429 746.583 721.663 746.432 721.166 746.17C720.01 745.562 719.447 744.849 719.173 743.564C718.622 740.977 719.835 737.443 721.294 735.326Z"/>
	<path fill="#231F20" d="M703.223 735.239C704.435 735.523 705.151 735.803 705.99 736.768C707.379 738.366 707.699 740.913 707.315 742.917C706.943 744.85 706.265 745.856 704.681 746.978C703.765 746.629 702.854 746.294 702.046 745.721C700.632 744.718 699.609 743.048 699.603 741.284C699.593 738.593 701.349 736.891 703.223 735.239Z"/>
	<path fill="#231F20" d="M679.852 735.234C681.106 735.272 682.392 735.168 683.33 736.169C684.337 737.241 684.866 738.731 684.897 740.189C684.959 743.103 683.988 745.542 682.036 747.654L681.852 747.596C680.01 747.009 678.645 746.396 677.871 744.456C676.646 741.383 678.438 737.894 679.852 735.234Z"/>
	<path fill="#231F20" d="M651.586 735.272C655.293 735.086 659.897 734.323 663.393 735.793C664.272 736.896 664.21 736.808 664.065 738.219C662.039 739.898 658.379 739.184 655.874 739.057C652.967 738.843 649.212 739.874 646.543 739.157C645.44 738.86 644.466 738.499 643.831 737.553C643.912 737.437 643.977 737.307 644.074 737.204C645.644 735.529 649.389 735.437 651.586 735.272Z"/>
	<path fill="#231F20" d="M672.143 706.25C675.352 705.918 681.31 705.222 684.312 706.341C685.105 706.636 684.867 706.636 685.234 707.544C682.99 709.109 664.768 708.963 660.62 709.465C657.51 709.614 653.781 710.858 650.711 710.284C649.55 710.067 649.483 709.909 648.864 708.986L649.214 707.972C654.878 705.732 665.811 706.497 672.143 706.25Z"/>
	<path fill="#231F20" d="M711.23 686.742L713.46 686.702C717.249 686.636 724.247 685.528 727.102 688.286C727.481 689.51 727.688 689.409 727.15 690.664C724.763 691.617 721.123 691.165 718.522 691.115C714.743 691.293 710.931 691.549 707.149 691.526C705.033 691.512 702.021 691.628 700.452 690.03C700.622 689.248 700.556 688.71 701.213 688.164C703.432 686.319 708.45 686.807 711.23 686.742Z"/>
	<path fill="#231F20" d="M734.418 734.975C736.031 734.809 737.092 734.667 738.622 735.374C740.106 736.872 740.54 738.34 740.69 740.436C740.942 743.941 740.049 749.072 737.825 751.816C736.447 751.936 735.258 752.068 733.994 751.323C733.045 750.763 732.604 749.738 732.331 748.717C731.222 744.573 732.363 738.654 734.418 734.975Z"/>
	<path fill="#231F20" d="M656.93 717.711C661.416 717.146 666.386 717.217 670.915 717.251C673.273 717.269 676.305 717.217 678.068 718.984C678.039 720.111 678.013 720.164 677.33 721.063C674.72 722.013 671.446 721.638 668.686 721.64C664.063 722.15 650.578 723.472 647.056 720.745L647.106 720.086C650.074 717.556 653.226 717.825 656.93 717.711Z"/>
	<path fill="#231F20" d="M749.347 733.869C750.857 733.915 751.823 733.883 753.093 734.831C754.214 736.434 754.439 737.93 754.522 739.87C754.695 743.933 753.872 749.827 751.104 752.914C750.078 752.82 748.605 752.811 747.721 752.246C746.186 751.266 745.825 748.787 745.697 747.149C745.375 743.035 746.617 737.01 749.347 733.869Z"/>
	<path fill="#231F20" d="M736.847 699.733C739.014 699.656 741.378 699.428 743.523 699.743C744.92 699.948 745.773 700.349 746.565 701.566C747.15 702.466 746.993 702.12 746.736 703.258C745.764 703.839 745.003 704.207 743.867 704.343C739.563 704.857 734.818 704.336 730.467 704.339C725.614 704.342 720.738 704.776 715.875 704.862C713.029 704.856 710.229 704.988 707.391 705.187C706.259 704.499 705.833 704.336 705.195 703.2L705.577 702.452C710.909 699.26 729.92 699.879 736.847 699.733Z"/>
	<path fill="#231F20" d="M686.957 666.732C698.531 666.615 764.227 665.904 769.666 670.778C769.899 671.479 770.008 672.035 769.942 672.778C769.763 674.782 769.46 676.8 769.475 678.816C769.515 684.473 770.797 690.682 771.255 696.39C771.837 703.64 775.901 762.137 772.991 765.905C771.496 767.842 766.748 768.444 764.509 768.592C759.847 768.901 754.953 768.488 750.279 768.385L722.647 767.832C702.703 767.545 682.559 768.223 662.655 767.132C659.746 766.973 656.304 766.764 654.236 764.472C654.194 763.814 653.978 763.497 654.503 762.993C657.578 760.047 675.813 761.509 680.625 761.532C697.687 762.142 714.591 761.51 731.633 761.569C743.925 761.612 756.205 762.421 768.501 762.396C768.158 744.307 767.4 725.844 766.004 707.811C765.147 696.752 763.139 685.516 763.558 674.428C740.999 673.69 718.308 672.842 695.742 672.965C686.012 673.018 676.253 672.87 666.529 673.025C661.865 673.099 656.826 673.792 652.199 673.252C650.502 673.053 649.281 672.735 648.161 671.378C648.01 670.042 647.998 670.096 648.776 668.998C653.409 666.525 679.675 666.951 686.957 666.732Z"/>
	<path fill="#FEFEFE" d="M734.838 490.173C743.743 492.556 753.658 492.466 762.841 492.407C767.418 492.378 772.153 492.123 776.681 492.913C782.152 493.867 787.338 496.073 792.302 498.493C795.7 500.149 798.989 501.937 801.865 504.416C818.945 519.135 835.738 553.869 843.951 575.021C846.524 581.645 848.578 588.535 850.912 595.253C836.536 627.272 814.95 657.961 809.403 693.254C805.127 677.566 804.266 659.867 802.526 643.693C801.038 629.853 798.982 616.194 798.289 602.264C800.875 601.078 803.456 599.784 805.914 598.35C808.637 596.759 813.617 594.046 814.458 590.89L813.801 590.065C812.832 589.774 811.906 589.508 810.883 589.528C808.48 589.573 789.766 600.864 787.84 603.113C787.041 604.047 786.817 604.533 786.981 605.732C788.485 606.736 790.52 606.612 792.288 606.688C793.344 610.249 793.146 614.366 793.558 618.081Q795.375 633.471 796.946 648.889C798.313 661.554 799.703 674.193 801.885 686.75C803.285 694.809 805.243 702.793 806.858 710.814C808.298 717.97 809.124 725.276 811.017 732.332L811.269 733.256L810.895 733.879C805.023 734.666 798.41 733.768 792.454 733.489C791.452 724.379 791.024 715.148 790.296 706.009Q787.612 674.757 786.608 643.406L786.715 642.569C788.621 640.891 792.127 638.397 792.552 635.756C792.733 634.635 792.361 633.342 791.598 632.503C788.329 628.918 778.375 629.913 774.004 630.059C774.751 627.79 776.035 624.869 775.129 622.48C773.467 618.1 761.524 617.602 756.151 615.532C757.432 613.172 759.643 609.918 759.335 607.182C756.831 604.726 746.593 604.106 742.861 603.49C735.839 602.33 728.957 600.902 722.106 598.96C712.182 596.148 701.938 592.22 691.58 591.639C677.444 590.846 661.093 595.274 650.065 604.387C646.009 607.739 642.823 612.005 638.884 615.492L638.436 615.882C633.477 603.325 625.453 593.563 613.043 587.899C613.822 584.608 614.827 581.631 616.285 578.575C618.213 574.533 629.709 555.787 629.732 553.55C629.746 552.166 629.162 551.869 628.215 551.056C627.101 550.922 626.759 550.811 625.758 551.431C619.933 555.042 609.604 578.453 607.712 585.629C593.534 579.17 578.536 582.95 564.155 586.509C563.5 584.395 562.786 582.564 561.682 580.643C562.5 579.329 563.335 578.019 564.258 576.775C567.26 572.73 570.941 569.067 574.317 565.33L595.177 542.597C606.214 530.619 616.66 517.72 629.09 507.1C634.526 502.455 641.032 497.819 647.798 495.362C655.531 492.553 663.82 491.516 672.017 491.466C676.428 491.439 680.894 491.685 685.267 491.023C685.486 490.99 685.704 490.95 685.923 490.913C685.606 492.018 685.293 493.128 685.052 494.252C683.705 500.541 684.578 508.854 688.134 514.259C691.298 519.067 696.739 521.957 702.334 522.878C708.489 523.89 714.864 521.446 719.83 517.886C729.636 510.858 732.996 501.605 734.838 490.173Z"/>
	<path fill="#FEFEFE" d="M651.368 232.901L653.425 233.221C659.064 237.538 653.221 260.77 655.519 268.119C656.732 269.443 658.387 269.684 660.157 269.906C663.965 270.385 667.761 269.812 671.574 269.806C675.093 269.801 678.609 270.414 682.127 270.553C686.158 270.712 690.241 270.477 694.26 270.847C696.883 271.089 699.343 271.918 701.837 272.717C703.522 271.778 705.407 270.817 706.752 269.413C712.705 263.198 714.343 248.84 722.989 242.078C724.306 241.047 725.205 240.899 726.828 241.102C733.899 246.045 728.823 268.692 732.89 276.412C736.49 277.997 760.042 278.738 765.733 279.021C770.567 289.061 780.326 309.813 790.164 315.325C795.86 311.665 798.215 305.575 804.975 302.594Q805.461 302.377 805.957 302.185Q806.453 301.993 806.958 301.826Q807.463 301.66 807.976 301.52Q808.489 301.379 809.009 301.266Q809.528 301.152 810.053 301.065Q810.578 300.978 811.106 300.918Q811.635 300.858 812.166 300.826Q812.697 300.793 813.229 300.788Q813.76 300.782 814.292 300.804Q814.823 300.826 815.353 300.875Q815.883 300.924 816.409 301Q816.935 301.077 817.457 301.18Q817.979 301.283 818.495 301.413Q819.011 301.543 819.519 301.699Q820.028 301.855 820.527 302.037Q821.027 302.219 821.517 302.426C827.634 305.048 831.044 310.322 833.312 316.32C836.225 324.026 833.944 334.652 830.457 341.87C825.849 351.407 818.422 356.966 808.61 360.45C806.634 359.881 804.68 359.163 802.727 358.516C801.915 357.441 800.862 355.889 799.652 355.242C798.981 354.883 798.183 354.734 797.47 354.999C796.693 355.288 795.754 356.009 795.331 356.745C794.619 357.989 795.237 365.567 794.718 368.198C793.086 376.462 789.428 384.365 786.254 392.124C779.016 406.158 770.868 417.262 758.564 427.341C746.945 436.86 728.116 446.651 713.44 449.808C706.744 451.248 699.546 451.523 692.742 450.83C673.231 448.844 648.342 445.65 635.378 429.409C630.108 422.807 626.313 415.322 622.814 407.686C606.713 372.549 608.79 337.989 610.9 300.419C611.517 289.444 611.29 278.222 612.585 267.318C619.373 267.327 626.448 268.809 633.13 268.348L633.155 267.37L633.426 268.059C636.734 263.025 637.86 256.461 639.814 250.812Q642.728 242.577 647.158 235.048L651.368 232.901Z"/>
	<path fill="#231F20" d="M746.989 305.019C748.491 304.894 749.727 304.832 751.223 305.148C752.372 306.106 752.419 306.353 752.89 307.793C751.493 308.019 750.377 308.049 748.965 307.946C747.614 306.971 747.578 306.531 746.989 305.019Z"/>
	<path fill="#231F20" d="M648.852 242.795L650.466 243.141C652.256 245.017 652.357 248.93 652.513 251.447C652.774 255.646 653.345 263.979 650.369 267.308C648.434 268.012 646.518 267.883 644.493 267.862C642.965 267.609 641.775 267.501 640.539 266.473C640.08 265.578 640.019 264.917 640.094 263.934C640.602 257.283 643.627 247.091 648.852 242.795Z"/>
	<path fill="#231F20" d="M723.079 249.527C724.469 249.595 725.555 249.635 726.842 250.247C727.077 250.827 727.166 250.981 727.297 251.679C728.052 255.706 728.547 268.633 725.804 271.735C724.633 273.059 720.255 272.973 718.54 273.102C717.448 272.772 716.07 272.351 715.329 271.439C713.757 269.503 713.984 266.063 714.465 263.805C715.613 258.423 718.401 252.566 723.079 249.527Z"/>
	<path fill="#231F20" d="M812.968 312.45C813.429 312.53 813.606 312.536 814.077 312.754C815.29 313.316 815.718 313.896 816.035 315.133C815.027 318.117 810.818 319.804 808.216 321.219C811.556 322.24 815.857 324.6 818.39 326.99C819.415 327.958 820.362 329.234 820.272 330.72C820.182 332.195 819.263 333.42 818.166 334.33C815.714 336.362 809.861 341.232 806.737 340.929C805.693 339.875 805.771 339.67 805.558 338.176C806.107 336.626 807.169 335.869 808.374 334.827L808.935 334.349C810.746 333.132 812.412 331.765 814.104 330.393C810.809 328.604 807.221 327.2 803.791 325.678C802.372 327.483 800.614 330.296 798.404 331.119C797.309 331.527 797.164 331.479 796.161 331.029C796.092 330.848 796.003 330.673 795.955 330.485C795.572 328.979 796.225 327.313 796.873 325.964C799.903 319.66 806.436 314.647 812.968 312.45Z"/>
	<path fill="#231F20" d="M641.448 303.409C642.372 303.415 643.253 303.406 644.14 303.719C645.868 304.329 647.114 305.851 647.822 307.489C650.238 313.08 648.507 321.69 646.35 327.232C645.159 330.294 644.232 332.605 641.07 333.968C638.934 333.974 637.203 334.017 635.573 332.421C633.821 330.705 633.291 328.119 633.253 325.755C633.129 318.242 636.286 308.862 641.448 303.409Z"/>
	<path fill="#231F20" d="M696.271 385.306C697.498 385.447 698.54 385.6 699.491 386.475C700.324 387.243 700.963 388.835 700.863 389.999C700.736 391.476 699.851 391.852 698.808 392.73C697.604 396.177 696.06 399.333 693.778 402.188C689.788 407.179 684.224 410.969 677.737 411.585C670.604 412.262 665.126 408.308 659.867 404.108C658.651 402.719 657.158 401.234 656.493 399.494C656.016 398.245 656.085 397.36 656.647 396.181L657.871 395.802C661.123 396.7 663.12 399.705 665.809 401.613C669.359 404.132 673.583 405.712 677.963 404.89C687.93 403.017 690.864 393.008 695.911 385.809L696.271 385.306Z"/>
	<path fill="#231F20" d="M708.073 304.332C710.382 305.003 712.448 305.732 713.731 307.906C716.661 312.874 716.841 320.739 715.297 326.24C714.024 330.773 711.733 334.156 707.646 336.513C707.145 336.537 706.767 336.587 706.258 336.436C704.648 335.957 702.844 334.281 701.922 332.921C698.88 328.434 699.789 320.852 701 315.809C702.114 311.168 703.855 306.89 708.073 304.332Z"/>
	<path fill="#231F20" d="M669.722 332.353C671.652 332.351 672.415 332.579 674.023 333.618C674.466 334.468 674.777 334.759 674.718 335.75C674.298 342.791 657.041 357.118 651.67 361.942C657.081 361.614 665.355 359.198 670.183 359.748C671.761 359.927 672.461 360.402 673.43 361.618C673.458 362.653 673.477 363.156 672.953 364.092C671.972 365.844 669.06 366.365 667.263 366.894C661.783 368.127 645.111 370.139 640.658 366.405C639.599 365.517 639.653 365.168 639.561 363.887C641.506 358.981 651.525 352.758 655.561 348.651C660.633 343.488 664.889 337.7 669.722 332.353Z"/>
	<path fill="#FEFEFE" d="M421.57 259.494L421.971 259.8C429.23 277.517 430.118 297.506 432.502 316.254C433.224 321.926 434.775 327.83 434.825 333.531C434.864 337.919 433.733 342.365 433.609 346.786C432.69 379.737 431.327 412.338 419.851 443.637C413.371 461.312 401.896 472.037 384.99 479.812C370.943 486.271 358.546 487.555 343.224 486.297C336.604 485.753 330.077 484.822 323.832 482.469C316.533 479.718 309.818 475.558 303.354 471.246C283.284 457.855 267.424 441.567 257.501 419.319C252.833 410.569 250.637 396.448 249.604 386.676C249.273 383.537 250.32 375.795 248.644 373.367C244.946 372.361 238.629 376.518 234.816 377.43Q234.329 377.547 233.838 377.641Q233.346 377.735 232.85 377.804Q232.354 377.874 231.856 377.919Q231.357 377.965 230.857 377.986Q230.357 378.007 229.856 378.003Q229.355 378 228.856 377.972Q228.356 377.945 227.858 377.893Q227.36 377.84 226.865 377.764Q226.37 377.688 225.88 377.588Q225.389 377.487 224.904 377.363Q224.419 377.239 223.941 377.092Q223.462 376.944 222.992 376.773Q222.521 376.603 222.059 376.409Q221.598 376.216 221.146 376Q220.694 375.784 220.253 375.547Q219.813 375.31 219.384 375.051C212.59 371.038 208.232 364.904 206.326 357.287C203.773 347.088 205.234 335.649 210.737 326.623C214.209 320.929 219.95 314.861 226.647 313.379C229.658 312.713 232.803 312.95 235.802 313.566C250.173 316.514 249.346 327.076 255.638 329.759C256.871 330.285 257.419 330.018 258.549 329.559C260.378 326.866 260.04 322.235 261.541 319.09C263.779 314.399 266.984 310.373 269.63 305.931C276.241 294.836 280.699 283.666 283.382 271.038C294.806 273.553 306.024 276.48 317.695 277.774C325.643 278.656 333.617 278.234 341.586 277.972C351.357 277.65 361.261 277.619 370.954 276.303C376.694 275.524 382.436 274.038 388.088 272.764C392.973 271.662 397.906 270.654 402.625 268.947C409.257 266.547 415.404 262.877 421.57 259.494Z"/>
	<path fill="#231F20" d="M227.237 335.984C230.3 335.747 232.835 336.442 235.713 337.354Q236.362 338.16 236.975 338.994C239.87 342.97 240.548 348.978 239.715 353.737C239.436 355.332 239.075 356.599 237.686 357.572L236.824 357.317C233.38 353.298 234.647 347.653 232.917 342.891C232.855 342.719 232.787 342.548 232.722 342.377C231.821 341.817 231.436 341.648 230.371 341.716C227.071 344.594 228.962 353.151 225.982 356.576C225.051 357.646 224.245 357.627 222.944 357.806L221.954 357.006C221.597 355.918 221.399 355.004 221.439 353.85C221.61 348.834 223.555 339.457 227.237 335.984Z"/>
	<path fill="#231F20" d="M333.566 409.577C335.255 409.405 337.535 408.943 338.997 410.026C340.887 411.425 341.022 414.004 341.429 416.121C341.755 417.814 342.159 419.436 343.828 420.319C345.251 421.072 347.284 421.207 348.72 420.396C350.88 419.176 351.361 416.132 352.245 414.03C352.881 412.519 353.582 411.196 355.249 410.655C356.103 410.378 356.337 410.749 357.077 411.131C358.832 413.65 359.135 415.112 358.95 418.188C358.491 419.308 358.036 420.445 357.481 421.522C355.114 426.117 350.257 427.417 345.718 428.881C341.874 427.816 339.324 426.93 336.871 423.6C334.073 419.801 332.948 414.204 333.566 409.577Z"/>
	<path fill="#231F20" d="M400.499 312.063C401.661 312.074 403.057 311.999 404.154 312.418C405.884 313.08 406.952 314.981 407.528 316.634C409.397 322.002 407.966 331.237 405.544 336.306C404.182 339.154 402.874 340.508 399.926 341.602C399.411 341.482 399.297 341.466 398.735 341.277C396.303 340.457 394.808 339.053 393.769 336.691C391.514 331.564 392.349 323.76 394.345 318.602C395.679 315.155 397.142 313.545 400.499 312.063Z"/>
	<path fill="#231F20" d="M327.056 321.397C327.717 321.508 327.789 321.496 328.509 321.749C330.704 322.518 332.318 324.193 333.073 326.37C334.733 331.154 332.796 337.349 330.476 341.592C328.466 345.267 326.171 348.248 322.047 349.386C321.278 349.277 320.498 349.166 319.747 348.963C317.627 348.392 316.003 346.899 315.067 344.935C313.521 341.693 314.419 337.499 315.569 334.279C317.786 328.075 321.202 324.157 327.056 321.397Z"/>
	<path fill="#231F20" d="M373.496 328.97C374.574 328.966 375.363 329.067 376.393 329.386C378.808 333.555 370.466 356.19 369.819 362.459C372.28 363.482 374.631 365.213 376.904 366.614C380.464 365.867 384.05 363.593 387.489 363.163C388.564 363.028 389.096 363.241 390.01 363.792C392.812 365.482 395.288 369.346 397.788 371.6C399.568 373.205 401.635 374.414 403.434 375.978C405.212 377.523 406.289 378.841 406.465 381.25C405.899 382.427 405.481 382.879 404.232 383.372C382.121 392.098 352.29 399.719 329.179 391.05C325.484 389.519 318.803 386.951 316.978 383.188C316.418 382.034 316.377 380.928 316.912 379.741C317.275 378.935 317.968 378.342 318.775 378.016C322.914 376.345 327.207 381.212 330.659 382.928C341.153 388.142 361.1 387.004 372.327 384.963C378.475 383.846 384.472 382.06 390.43 380.204C379.155 376.416 373.021 371.903 364.195 364.15C364.045 362.973 363.801 361.593 363.978 360.42C364.565 356.512 366.528 352.17 367.714 348.366C369.722 341.924 371.447 335.401 373.496 328.97Z"/>
	<path fill="#FEFEFE" d="M385.527 368.62C388.111 369.685 390.236 371.472 391.696 373.847L391.302 374.575C389.835 374.04 388.357 373.511 386.916 372.909C385.461 372.3 384.959 371.739 384.383 370.3L385.527 368.62Z"/>
	<path fill="#FEFEFE" d="M258.19 438.735C261.6 438.966 268.043 450.147 270.709 452.99C283.316 466.436 303.447 481.458 320.651 488.287C320.196 492.244 319.72 496.207 319.698 500.195C319.641 510.919 320.436 523.907 328.63 531.838C332.259 535.35 336.86 536.955 341.88 536.791C347.711 536.601 352.91 533.911 356.891 529.717C365.78 520.353 368.815 504.719 368.474 492.257C377.466 489.418 387.591 486.253 395.813 481.613C408.232 474.604 419.846 463.034 423.718 448.982C432.493 453.093 440.886 458.982 448.598 464.808C479.913 488.463 497.125 515.424 509.895 552.205C514.956 566.784 517.83 582.083 523.388 596.498L522.92 596.637C516.228 598.691 509.205 598.889 502.494 600.846C502.572 603.87 502.291 606.752 501.946 609.749C497.436 610.404 492.992 610.993 488.669 612.49C488.951 615.682 489.008 618.7 488.822 621.899C482.158 623.989 474.903 623.504 467.979 624.13C464.358 631.955 464.562 647.363 463.766 656.454C462.117 675.27 460.928 694.163 459.119 712.953C456.108 714.28 449.8 712.941 446.15 713.491L445.427 713.606C445.376 698.224 441.005 578.954 437.127 574.009C436.163 572.781 435.007 572.285 433.508 572.25C433.109 572.602 432.794 572.831 432.524 573.328C430.798 576.504 433.255 600.041 433.703 605.203Q436.595 641.087 438.318 677.047C438.772 687.511 437.167 699.139 439.332 709.345C439.628 710.739 439.779 712.103 439.902 713.523C434.876 715.024 424.952 715.747 419.68 715.214C415.344 714.776 411.168 713.644 406.79 713.395C406.562 713.382 406.334 713.374 406.106 713.363C404.257 696.188 400.155 649.075 388.386 637.641C386.811 636.111 384.845 634.939 382.577 635.095C379.678 635.294 376.895 637.467 375.074 639.593C366.549 649.547 370.757 674.643 371.942 687.028C361.679 688.81 351.135 695.365 341.721 699.828C336.484 702.311 331.107 704.526 325.81 706.883C322.31 704.936 321.086 700.577 317.248 698.911C314.809 697.852 313.716 699.852 311.49 700.002C308.244 700.222 292.705 695.519 288.39 694.379C283.853 693.205 279.195 692.657 274.606 691.726C265.856 689.948 257.198 687.791 248.337 686.594C232.497 684.453 216.378 684.109 200.437 683.015C200.356 655.962 204.269 629.06 209.025 602.476C211.231 590.145 219.426 565.291 218.191 554.202L216.821 553.404C215.628 553.591 215.322 553.579 214.468 554.507C211.16 558.105 210.31 568.064 209.183 572.847C207.152 581.471 204.645 589.976 202.866 598.668C201.68 604.461 201.068 610.365 200.118 616.2C196.318 639.529 193.929 659.439 194.434 683.262C187.162 683.563 161.907 684.365 157.016 688.95C156.566 690.126 156.409 690.354 156.653 691.567C160.623 694.758 175.33 690.838 180.31 690.227Q185.674 689.587 191.076 689.539C230.925 688.828 270.124 695.648 308.684 705.152C303.545 720.178 303.283 747.898 304.44 764.119C304.891 770.432 307.012 775.694 306.422 782.116C294.852 781.536 283.013 782.774 271.367 782.443C262.181 782.182 252.99 781.119 243.819 780.507C229.578 779.557 214.991 778.95 200.889 776.733C175.044 772.671 132.842 762.161 113.34 744.954C94.484 728.317 91.5727 698.468 90.1619 674.829C88.098 640.247 92.086 591.865 103.921 558.972C106.504 551.792 110.537 544.766 113.73 537.798C120.633 522.735 129.584 506.904 140.674 494.534Q142.067 492.98 143.499 491.462Q144.93 489.943 146.399 488.46Q147.868 486.977 149.373 485.531Q150.878 484.086 152.418 482.677Q153.958 481.269 155.533 479.9Q157.108 478.53 158.716 477.2Q160.324 475.87 161.965 474.58Q163.605 473.29 165.277 472.041Q166.949 470.792 168.652 469.585Q170.354 468.378 172.086 467.213Q173.818 466.049 175.578 464.927Q177.339 463.806 179.126 462.729Q180.914 461.652 182.727 460.619Q184.541 459.586 186.379 458.599Q188.218 457.611 190.081 456.67Q191.943 455.728 193.828 454.833Q195.714 453.938 197.62 453.09Q199.527 452.241 201.455 451.441Q203.382 450.64 205.328 449.887Q207.275 449.135 209.24 448.43Q211.204 447.726 213.186 447.071Q215.167 446.415 217.164 445.809Q219.161 445.203 221.173 444.647Q223.184 444.09 225.209 443.584Q227.233 443.078 229.27 442.622Q231.307 442.166 233.354 441.76Q235.401 441.355 237.458 441Q239.514 440.645 241.579 440.342Q243.644 440.038 245.716 439.786Q247.787 439.533 249.865 439.333Q251.942 439.132 254.024 438.982Q256.105 438.833 258.19 438.735Z"/>
</svg>
